<svg width="111" height="27" viewBox="0 0 111 27" fill="none" xmlns="http://www.w3.org/2000/svg">
<path d="M14.632 19.736C14.632 21.848 13.924 23.468 12.508 24.596C11.092 25.7 9.28 26.252 7.072 26.252C4.576 26.252 2.452 25.724 0.7 24.668V22.184C1.42 22.736 2.344 23.192 3.472 23.552C4.624 23.912 5.788 24.092 6.964 24.092C8.668 24.092 9.988 23.72 10.924 22.976C11.884 22.232 12.364 21.164 12.364 19.772C12.364 18.716 12.004 17.864 11.284 17.216C10.564 16.544 9.52 15.908 8.152 15.308C7.96 15.212 7.54 15.032 6.892 14.768C6.244 14.48 5.788 14.276 5.524 14.156C5.26 14.036 4.852 13.832 4.3 13.544C3.748 13.256 3.34 13.004 3.076 12.788C2.836 12.572 2.524 12.284 2.14 11.924C1.756 11.564 1.48 11.204 1.312 10.844C1.144 10.484 0.988 10.064 0.844 9.584C0.7 9.08 0.628 8.552 0.628 8C0.628 5.96 1.36 4.376 2.824 3.248C4.288 2.096 6.076 1.52 8.188 1.52C10.204 1.52 11.884 1.88 13.228 2.6V5.084C12.652 4.7 11.896 4.376 10.96 4.112C10.024 3.848 9.112 3.716 8.224 3.716C6.616 3.716 5.332 4.1 4.372 4.868C3.412 5.612 2.932 6.608 2.932 7.856C2.932 8.504 3.052 9.08 3.292 9.584C3.556 10.088 3.988 10.556 4.588 10.988C5.188 11.396 5.704 11.72 6.136 11.96C6.592 12.176 7.276 12.476 8.188 12.86C9.028 13.22 9.664 13.508 10.096 13.724C10.528 13.916 11.08 14.228 11.752 14.66C12.424 15.092 12.928 15.524 13.264 15.956C13.624 16.364 13.936 16.904 14.2 17.576C14.488 18.224 14.632 18.944 14.632 19.736ZM28.4684 25.496C27.7724 25.952 26.9684 26.18 26.0564 26.18C22.6004 26.18 20.8724 24.404 20.8724 20.852V9.62H17.8844V7.748H20.8724V3.176H23.1044V7.748H28.3244V9.62H23.1044V20.96C23.1044 23.048 24.0764 24.092 26.0204 24.092C26.9804 24.092 27.7964 23.816 28.4684 23.264V25.496ZM48.6737 16.964C48.6737 19.676 47.9057 21.92 46.3697 23.696C44.8577 25.448 42.7697 26.324 40.1057 26.324C37.5377 26.324 35.4977 25.436 33.9857 23.66C32.4737 21.884 31.7177 19.652 31.7177 16.964C31.7177 14.3 32.4977 12.056 34.0577 10.232C35.6177 8.408 37.6337 7.496 40.1057 7.496C42.8177 7.496 44.9177 8.396 46.4057 10.196C47.9177 11.972 48.6737 14.228 48.6737 16.964ZM34.0217 16.964C34.0217 18.956 34.5737 20.672 35.6777 22.112C36.8057 23.528 38.2817 24.236 40.1057 24.236C42.0977 24.236 43.6337 23.54 44.7137 22.148C45.8177 20.732 46.3697 19.004 46.3697 16.964C46.3697 14.852 45.8537 13.1 44.8217 11.708C43.7897 10.292 42.2177 9.584 40.1057 9.584C38.2097 9.584 36.7217 10.304 35.6417 11.744C34.5617 13.184 34.0217 14.924 34.0217 16.964ZM55.2093 26H53.0133V0.547999H55.2093V26ZM58.4133 16.424L66.1173 26H63.3813L55.7493 16.424L63.1653 7.748H65.8653L58.4133 16.424ZM78.1023 26H74.0703L67.5903 7.748H71.2983L73.7823 15.452C74.3583 17.228 74.8383 18.764 75.2223 20.06C75.6303 21.356 75.8823 22.208 75.9783 22.616L76.1223 23.228C76.3383 22.052 77.1303 19.46 78.4983 15.452L81.0543 7.748H84.7263L78.1023 26ZM101.49 25.028C100.146 25.796 98.3704 26.18 96.1624 26.18C93.3304 26.18 91.0744 25.328 89.3944 23.624C87.7144 21.92 86.8744 19.688 86.8744 16.928C86.8744 14 87.6424 11.708 89.1784 10.052C90.7144 8.372 92.6704 7.532 95.0464 7.532C97.3744 7.532 99.2224 8.264 100.59 9.728C101.958 11.168 102.642 13.256 102.642 15.992C102.642 16.736 102.57 17.516 102.426 18.332H90.4384C90.6784 19.916 91.3504 21.128 92.4544 21.968C93.5584 22.808 94.9504 23.228 96.6304 23.228C98.5744 23.228 100.194 22.772 101.49 21.86V25.028ZM95.1184 10.448C93.9184 10.448 92.8864 10.892 92.0224 11.78C91.1584 12.644 90.6184 13.904 90.4024 15.56H99.2224V14.912C99.1744 13.544 98.8024 12.464 98.1064 11.672C97.4104 10.856 96.4144 10.448 95.1184 10.448ZM110.505 26H106.941V0.547999H110.505V26Z" fill="white"/>
</svg>
