<svg width="109" height="27" viewBox="0 0 109 27" fill="none" xmlns="http://www.w3.org/2000/svg">
<path d="M11.484 25.496C10.788 25.952 9.984 26.18 9.072 26.18C5.616 26.18 3.888 24.404 3.888 20.852V9.62H0.9V7.748H3.888V3.176H6.12V7.748H11.34V9.62H6.12V20.96C6.12 23.048 7.092 24.092 9.036 24.092C9.996 24.092 10.812 23.816 11.484 23.264V25.496ZM18.0453 26H15.8493V7.748H18.0453V10.844C19.0533 8.636 20.7573 7.532 23.1573 7.532C23.3253 7.532 23.6253 7.556 24.0573 7.604V9.836C23.5773 9.692 23.0973 9.62 22.6173 9.62C21.3213 9.62 20.2293 10.268 19.3413 11.564C18.4773 12.836 18.0453 14.252 18.0453 15.812V26ZM32.4616 24.164C33.9016 24.164 35.0536 23.768 35.9176 22.976C36.7816 22.184 37.2136 21.176 37.2136 19.952V17.324H33.6496C31.9456 17.324 30.6736 17.66 29.8336 18.332C28.9936 18.98 28.5736 19.796 28.5736 20.78C28.5736 21.788 28.8976 22.604 29.5456 23.228C30.2176 23.852 31.1896 24.164 32.4616 24.164ZM37.2136 23.876C36.2056 25.412 34.4536 26.18 31.9576 26.18C30.2776 26.18 28.8976 25.688 27.8176 24.704C26.7616 23.696 26.2336 22.412 26.2336 20.852C26.2336 19.1 26.9056 17.744 28.2496 16.784C29.6176 15.8 31.4176 15.308 33.6496 15.308H37.2136V14.48C37.2136 12.848 36.8656 11.624 36.1696 10.808C35.4736 9.968 34.3096 9.548 32.6776 9.548C30.7816 9.548 29.0776 10.064 27.5656 11.096V8.72C28.9576 7.88 30.6736 7.46 32.7136 7.46C37.1776 7.46 39.4096 9.8 39.4096 14.48V26H37.2136V23.876ZM46.8734 26H44.6774V0.547999H46.8734V26ZM50.0774 16.424L57.7814 26H55.0454L47.4134 16.424L54.8294 7.748H57.5294L50.0774 16.424ZM66.5983 24.164C68.0383 24.164 69.1903 23.768 70.0543 22.976C70.9183 22.184 71.3503 21.176 71.3503 19.952V17.324H67.7863C66.0823 17.324 64.8103 17.66 63.9703 18.332C63.1303 18.98 62.7103 19.796 62.7103 20.78C62.7103 21.788 63.0343 22.604 63.6823 23.228C64.3543 23.852 65.3263 24.164 66.5983 24.164ZM71.3503 23.876C70.3423 25.412 68.5903 26.18 66.0943 26.18C64.4143 26.18 63.0343 25.688 61.9543 24.704C60.8983 23.696 60.3703 22.412 60.3703 20.852C60.3703 19.1 61.0423 17.744 62.3863 16.784C63.7543 15.8 65.5543 15.308 67.7863 15.308H71.3503V14.48C71.3503 12.848 71.0023 11.624 70.3063 10.808C69.6103 9.968 68.4463 9.548 66.8143 9.548C64.9183 9.548 63.2143 10.064 61.7023 11.096V8.72C63.0943 7.88 64.8103 7.46 66.8503 7.46C71.3143 7.46 73.5463 9.8 73.5463 14.48V26H71.3503V23.876ZM84.1061 24.164C85.5461 24.164 86.6981 23.768 87.5621 22.976C88.4261 22.184 88.8581 21.176 88.8581 19.952V17.324H85.2941C83.5901 17.324 82.3181 17.66 81.4781 18.332C80.6381 18.98 80.2181 19.796 80.2181 20.78C80.2181 21.788 80.5421 22.604 81.1901 23.228C81.8621 23.852 82.8341 24.164 84.1061 24.164ZM88.8581 23.876C87.8501 25.412 86.0981 26.18 83.6021 26.18C81.9221 26.18 80.5421 25.688 79.4621 24.704C78.4061 23.696 77.8781 22.412 77.8781 20.852C77.8781 19.1 78.5501 17.744 79.8941 16.784C81.2621 15.8 83.0621 15.308 85.2941 15.308H88.8581V14.48C88.8581 12.848 88.5101 11.624 87.8141 10.808C87.1181 9.968 85.9541 9.548 84.3221 9.548C82.4261 9.548 80.7221 10.064 79.2101 11.096V8.72C80.6021 7.88 82.3181 7.46 84.3581 7.46C88.8221 7.46 91.0541 9.8 91.0541 14.48V26H88.8581V23.876ZM101.614 24.164C103.054 24.164 104.206 23.768 105.07 22.976C105.934 22.184 106.366 21.176 106.366 19.952V17.324H102.802C101.098 17.324 99.8259 17.66 98.9859 18.332C98.1459 18.98 97.7259 19.796 97.7259 20.78C97.7259 21.788 98.0499 22.604 98.6979 23.228C99.3699 23.852 100.342 24.164 101.614 24.164ZM106.366 23.876C105.358 25.412 103.606 26.18 101.11 26.18C99.4299 26.18 98.0499 25.688 96.9699 24.704C95.9139 23.696 95.3859 22.412 95.3859 20.852C95.3859 19.1 96.0579 17.744 97.4019 16.784C98.7699 15.8 100.57 15.308 102.802 15.308H106.366V14.48C106.366 12.848 106.018 11.624 105.322 10.808C104.626 9.968 103.462 9.548 101.83 9.548C99.9339 9.548 98.2299 10.064 96.7179 11.096V8.72C98.1099 7.88 99.8259 7.46 101.866 7.46C106.33 7.46 108.562 9.8 108.562 14.48V26H106.366V23.876Z" fill="white"/>
</svg>
