<svg width="98" height="27" viewBox="0 0 98 27" fill="none" xmlns="http://www.w3.org/2000/svg">
<path d="M14.948 25.064C13.532 25.808 11.804 26.18 9.764 26.18C7.004 26.18 4.772 25.34 3.068 23.66C1.388 21.956 0.548 19.712 0.548 16.928C0.548 14.024 1.304 11.732 2.816 10.052C4.328 8.372 6.272 7.532 8.648 7.532C10.928 7.532 12.74 8.264 14.084 9.728C15.428 11.192 16.1 13.268 16.1 15.956C16.1 16.724 16.04 17.432 15.92 18.08H3.464C3.68 19.88 4.364 21.26 5.516 22.22C6.668 23.18 8.18 23.66 10.052 23.66C12.092 23.66 13.724 23.24 14.948 22.4V25.064ZM8.648 10.016C7.28 10.016 6.116 10.508 5.156 11.492C4.196 12.476 3.632 13.88 3.464 15.704H13.256V14.984C13.256 13.472 12.848 12.272 12.032 11.384C11.216 10.472 10.088 10.016 8.648 10.016ZM28.0326 17.756H24.8646V26H20.3286V1.736H27.9246C30.6606 1.736 32.8446 2.48 34.4766 3.968C36.1326 5.456 36.9606 7.364 36.9606 9.692C36.9606 12.164 36.1086 14.132 34.4046 15.596C32.7246 17.036 30.6006 17.756 28.0326 17.756ZM27.5286 5.444H24.8646V14.084H27.4206C29.0766 14.084 30.3126 13.688 31.1286 12.896C31.9446 12.104 32.3526 11.036 32.3526 9.692C32.3526 8.372 31.9446 7.34 31.1286 6.596C30.3126 5.828 29.1126 5.444 27.5286 5.444ZM56.7845 16.82C56.7845 19.58 56.0045 21.848 54.4445 23.624C52.9085 25.4 50.7485 26.288 47.9645 26.288C45.2045 26.288 43.0445 25.424 41.4845 23.696C39.9485 21.968 39.1805 19.76 39.1805 17.072C39.1805 14.288 39.9845 11.996 41.5925 10.196C43.2005 8.372 45.3245 7.46 47.9645 7.46C50.7725 7.46 52.9445 8.348 54.4805 10.124C56.0165 11.876 56.7845 14.108 56.7845 16.82ZM43.7165 16.928C43.7165 18.608 44.0885 20.012 44.8325 21.14C45.5765 22.268 46.6325 22.832 48.0005 22.832C49.4165 22.832 50.4845 22.28 51.2045 21.176C51.9245 20.072 52.2845 18.668 52.2845 16.964C52.2845 15.212 51.9365 13.784 51.2405 12.68C50.5445 11.552 49.4525 10.988 47.9645 10.988C46.5965 10.988 45.5405 11.552 44.7965 12.68C44.0765 13.808 43.7165 15.224 43.7165 16.928ZM64.828 26H60.508V0.979998H64.828V16.316L71.272 7.748H76.312L69.616 16.46L76.456 26H71.38L64.828 16.568V26ZM82.5926 26H79.7486V7.748H82.5926V26ZM82.4846 0.692C82.8446 1.052 83.0246 1.496 83.0246 2.024C83.0246 2.552 82.8446 2.996 82.4846 3.356C82.1246 3.692 81.6806 3.86 81.1526 3.86C80.6246 3.86 80.1806 3.692 79.8206 3.356C79.4846 2.996 79.3166 2.552 79.3166 2.024C79.3166 1.496 79.4846 1.052 79.8206 0.692C80.1806 0.331999 80.6246 0.151998 81.1526 0.151998C81.6806 0.151998 82.1246 0.331999 82.4846 0.692ZM97.1509 25.532C96.3589 25.964 95.4709 26.18 94.4869 26.18C90.8869 26.18 89.0869 24.344 89.0869 20.672V10.052H86.1709V7.748H89.0869V3.212H91.9309V7.748H96.9709V10.052H91.9309V20.744C91.9309 22.688 92.8429 23.66 94.6669 23.66C95.6029 23.66 96.4309 23.384 97.1509 22.832V25.532Z" fill="white"/>
</svg>
